# AST/ASF file generated using VICON BodyLanguage
# -----------------------------------------------
:version 1.10
:name VICON
:units
  mass 1.0
  length 0.45
  angle deg
:documentation
   .ast/.asf automatically generated from VICON data using
   VICON BodyBuilder and BodyLanguage model FoxedUp or BRILLIANT.MOD
:root
   order TX TY TZ RX RY RZ
   axis XYZ
   position 0 0 0  
   orientation 0 0 0 
:bonedata
  begin
     id 1 
     name lhipjoint
     direction 0.541323 -0.757556 0.364798 
     length 2.47576 
     axis 0 0 0  XYZ
  end
  begin
     id 2 
     name lfemur
     direction 0.34202 -0.939693 0  
     length 7.46493  
     axis 0 0 20  XYZ
    dof rx ry rz
    limits (-160.0 20.0)
           (-70.0 70.0)
           (-60.0 70.0)
  end
  begin
     id 3 
     name ltibia
     direction 0.34202 -0.939693 0   
     length 7.73805   
     axis 0 0 20   XYZ
    dof rx
    limits (-10.0 170.0)
  end
  begin
     id 4 
     name lfoot
     direction 0.107174 -0.294458 0.949636   
     length 2.25864   
     axis -90 7.62852e-016 20   XYZ
    dof rx rz
    limits (-45.0 90.0)
           (-70.0 20.0)
  end
  begin
     id 5 
     name ltoes
     direction 1.53606e-011 -4.21934e-011 1   
     length 1.12451   
     axis -90 7.62852e-016 20   XYZ
    dof rx
    limits (-90.0 20.0)
  end
  begin
     id 6 
     name rhipjoint
     direction -0.524745 -0.766967 0.36933   
     length 2.44538  
     axis 0 0 0  XYZ 
  end
  begin
     id 7 
     name rfemur
     direction -0.34202 -0.939693 0   
     length 7.61604   
     axis 0 0 -20   XYZ
    dof rx ry rz
    limits (-160.0 20.0)
           (-70.0 70.0)
           (-70.0 60.0)
  end
  begin
     id 8 
     name rtibia
     direction -0.34202 -0.939693 0   
     length 7.61056   
     axis 0 0 -20   XYZ
    dof rx
    limits (-10.0 170.0)
 end
 begin
     id 9 
     name rfoot
     direction -0.12616 -0.346623 0.929482   
     length 2.46372  
     axis -90 -7.62852e-016 -20   XYZ
    dof rx rz
    limits (-45.0 90.0)
           (-20.0 70.0)
  end
  begin
     id 10 
     name rtoes
     direction -1.53531e-011 -4.22004e-011 1   
     length 1.21611   
     axis -90 -7.62852e-016 -20   XYZ
    dof rx
    limits (-90.0 20.0)
  end
  begin
     id 11 
     name lowerback
     direction -0.000778023 0.997293 -0.0735223   
     length 2.06139   
     axis 0 0 0   XYZ
    dof rx ry rz
    limits (-20.0 45.0)
           (-30.0 30.0)
           (-30.0 30.0)
  end
  begin
     id 12 
     name upperback
     direction 0.0222598 0.999722 -0.0078355   
     length 2.06383   
     axis 0 0 0   XYZ
    dof rx ry rz
    limits (-20.0 45.0)
           (-30.0 30.0)
           (-30.0 30.0)
  end
  begin
     id 13 
     name thorax
     direction 0.0219654 0.999405 0.0265994   
     length 2.07163   
     axis 0 0 0   XYZ
    dof rx ry rz
    limits (-20.0 45.0)
           (-30.0 30.0)
           (-30.0 30.0)
  end
  begin
     id 14 
     name lowerneck
     direction 0.0213282 0.988147 0.15202   
     length 1.75969   
     axis 0 0 0   XYZ
    dof rx ry rz
    limits (-20.0 45.0)
           (-30.0 30.0)
           (-30.0 30.0)
  end
  begin
     id 15 
     name upperneck
     direction -0.0546456 0.982624 -0.177379   
     length 1.79244   
     axis 0 0 0   XYZ
    dof rx ry rz
    limits (-20.0 45.0)
           (-30.0 30.0)
           (-30.0 30.0)
  end
  begin
     id 16
     name head
     direction -0.0199987 0.996855 -0.076686  
     length 1.80555  
     axis 0 0 0   XYZ
    dof rx ry rz
    limits (-20.0 45.0)
           (-30.0 30.0)
           (-30.0 30.0)
  end
  begin
     id 17 
     name lclavicle
     direction 0.929565 0.363219 -0.063096  
     length 3.55722  
     axis 0 0 0   XYZ
    dof ry rz
    limits (-20.0 10.0)
           (0.0 20.0)
  end
  begin
     id 18 
     name lhumerus
     direction 1 -4.48993e-011 -2.36203e-027   
     length 4.92785   
     axis 180 -30 -90   XYZ
    dof rx ry rz
    limits (-60.0 90.0)
           (-90.0 90.0)
           (-90.0 90.0)
  end
  begin
     id 19
     name lradius
     direction 1 -4.48947e-011 2.02997e-027   
     length 3.44052   
     axis 180 -30 -90   XYZ
    dof rx
    limits (-10.0 170.0)
  end
  begin
     id 20
     name lwrist
     direction 1 -4.48962e-011 1.45991e-027   
     length 1.72026   
     axis 1.49639e-024 90 90   XYZ
    dof ry
    limits (-180.0 0.0)
 end
  begin
     id 21 
     name lhand
     direction 1 -4.48984e-011 2.91906e-027   
     length 0.654326   
     axis -1.863e-015 90 90   XYZ
    dof rx rz
    limits (-90.0 90.0)
           (-45.0 45.0)
  end
  begin
     id 22 
     name lfingers
     direction 1 -4.48961e-011 5.83968e-027   
     length 0.527534   
     axis -3.72598e-015 90 90   XYZ
    dof rx
    limits (0.0 90.0)
  end
  begin
     id 23
     name lthumb
     direction 0.707107 -6.34963e-011 0.707107   
     length 0.757437   
     axis -90 45 -6.68868e-015   XYZ
    dof rx rz
    limits (-45.0 45.0)
           (-45.0 45.0)
  end
  begin
     id 24 
     name rclavicle
     direction -0.902944 0.422599 -0.0781198   
     length 3.54432  
     axis 0 0 0   XYZ 
    dof ry rz
    limits (-10.0 20.0)
           (-20.0 0.0)
  end
  begin
     id 25 
     name rhumerus
     direction -1 -4.48953e-011 -4.75835e-028  
     length 5.09181   
     axis 180 30 90   XYZ
    dof rx ry rz
    limits (-90.0 60.0)
           (-90.0 90.0)
           (-90.0 90.0)
  end
  begin
     id 26 
     name rradius
     direction -1 -4.48986e-011 -3.25889e-027   
     length 3.49865   
     axis 180 30 90   XYZ
    dof rx
    limits (-10.0 170.0)
  end
  begin
     id 27 
     name rwrist
     direction -1 -4.48963e-011 1.45989e-027   
     length 1.74933   
     axis 1.49639e-024 -90 -90   XYZ
    dof ry
    limits (-180.0 0.0)
  end
  begin
     id 28
     name rhand
     direction -1 -4.49003e-011 2.91844e-027   
     length 0.66641   
     axis -1.863e-015 -90 -90   XYZ
    dof rx rz
    limits (-90.0 90.0)
           (-45.0 45.0)
  end
  begin
     id 29
     name rfingers
     direction -1 -4.48973e-011 5.83886e-027   
     length 0.537277   
     axis -3.72598e-015 -90 -90   XYZ
    dof rx
    limits (0.0 90.0)
  end
  begin
     id 30
     name rthumb
     direction -0.707107 -6.34976e-011 0.707107   
     length 0.771425   
     axis -90 -45 6.68868e-015   XYZ
    dof rx rz
    limits (-45.0 45.0)
           (-45.0 45.0)
  end
:hierarchy
  begin
    root lhipjoint rhipjoint lowerback
    lhipjoint lfemur
    lfemur ltibia
    ltibia lfoot
    lfoot ltoes
    rhipjoint rfemur
    rfemur rtibia
    rtibia rfoot
    rfoot rtoes
    lowerback upperback
    upperback thorax
    thorax lowerneck lclavicle rclavicle
    lowerneck upperneck
    upperneck head
    lclavicle lhumerus
    lhumerus lradius
    lradius lwrist
    lwrist lhand lthumb
    lhand lfingers
    rclavicle rhumerus
    rhumerus rradius
    rradius rwrist
    rwrist rhand rthumb
    rhand rfingers
  end

#!OML:ASF H:\LiuWeirdWalks\Patient Classification 1\Patient 1\Session 1\male.ASF
:FULLY-SPECIFIED
:DEGREES
85
root 0.123196 17.9071 -29.2015 -0.551803 36.7949 -3.52767
lowerback 2.32894 6.45987 3.88559
upperback -0.513571 8.77612 2.10538
thorax -1.57651 4.35857 -0.28505
lowerneck -6.48968 20.4049 8.19511
upperneck 15.1989 28.1926 -6.11416
head 7.73445 13.6275 -0.280797
rclavicle 2.07121e-013 7.15625e-015
rhumerus -32.821 -4.01362 -80.1288
rradius 24.9913
rwrist -4.02782
rhand -15.113 2.16567
rfingers 7.12502
rthumb 11.0557 -27.5231
lclavicle 2.07121e-013 7.15625e-015
lhumerus -30.0332 -6.31363 92.8149
lradius 24.6303
lwrist 2.72389
lhand -10.0267 1.57152
lfingers 7.12502
lthumb 15.9579 30.9342
rfemur -4.28952 -17.3184 23.7303
rtibia 27.659
rfoot -20.6846 -41.8752
rtoes 5.33217
lfemur -13.2962 -10.5396 -13.0218
ltibia 29.2315
lfoot -13.3627 0.0477541
ltoes -9.12469
86
root 0.124078 17.9075 -29.2026 -0.52826 36.6572 -3.50664
lowerback 2.33815 6.51108 3.89867
upperback -0.577686 8.8463 2.03894
thorax -1.63319 4.39125 -0.366197
lowerneck -7.00214 20.1277 8.12406
upperneck 16.0945 27.784 -5.58023
head 7.99886 13.4253 -0.0818729
rclavicle -1.8692e-014 1.59028e-015
rhumerus -32.9152 -4.06878 -80.1678
rradius 25.0943
rwrist -4.18364
rhand -15.0506 2.15186
rfingers 7.12502
rthumb 11.116 -27.5337
lclavicle -1.8692e-014 1.59028e-015
lhumerus -30.1859 -6.50559 92.7984
lradius 24.5943
lwrist 2.71323
lhand -10.0446 1.61855
lfingers 7.12502
lthumb 15.9407 30.9826
rfemur -4.2944 -17.2487 23.7023
rtibia 27.6511
rfoot -20.6705 -41.7915
rtoes 5.29998
lfemur -13.265 -10.5445 -13.0497
ltibia 29.224
lfoot -13.3463 0.207064
ltoes -9.09561
87
root 0.124975 17.9078 -29.2037 -0.509475 36.5088 -3.48973
lowerback 2.33612 6.53012 3.89133
upperback -0.617822 8.8723 2.00915
thorax -1.669 4.40301 -0.395599
lowerneck -7.53103 19.848 7.96917
upperneck 16.9957 27.3782 -5.04931
head 8.26196 13.2232 0.127223
rclavicle -1.16786e-015 -1.27222e-014
rhumerus -32.9329 -4.08075 -80.2023
rradius 25.1549
rwrist -4.2308
rhand -15.0303 2.16588
rfingers 7.12502
rthumb 11.1356 -27.5187
lclavicle -1.16786e-015 -1.27222e-014
lhumerus -30.2988 -6.54176 92.7731
lradius 24.534
lwrist 2.67236
lhand -10.0521 1.64308
lfingers 7.12502
lthumb 15.9335 31.0077
rfemur -4.29704 -17.169 23.6779
rtibia 27.6434
rfoot -20.6495 -41.7091
rtoes 5.25968
lfemur -13.2301 -10.5422 -13.0741
ltibia 29.2174
lfoot -13.3311 0.367798
ltoes -9.04652
88
root 0.125795 17.9082 -29.2051 -0.487872 36.3526 -3.46915
lowerback 2.31585 6.50353 3.84651
upperback -0.625406 8.83527 2.028
thorax -1.67633 4.38503 -0.350238
lowerneck -8.20238 19.5702 7.67867
upperneck 18.0565 26.9908 -4.46894
head 8.58385 13.0202 0.391226
rclavicle 1.8459e-013 2.78299e-014
rhumerus -32.8551 -4.03565 -80.2296
rradius 25.1678
rwrist -4.13699
rhand -15.0517 2.20519
rfingers 7.12502
rthumb 11.1149 -27.4805
lclavicle 1.8459e-013 2.78299e-014
lhumerus -30.3647 -6.37631 92.7394
lradius 24.4604
lwrist 2.59064
lhand -10.0435 1.64702
lfingers 7.12502
lthumb 15.9418 31.011
rfemur -4.30292 -17.0825 23.6514
rtibia 27.6377
rfoot -20.6104 -41.6277
rtoes 5.20898
lfemur -13.1948 -10.5261 -13.1012
ltibia 29.21
lfoot -13.3172 0.52311
ltoes -8.99924
89
root 0.12653 17.9086 -29.2066 -0.461438 36.1923 -3.44066
lowerback 2.28608 6.44147 3.77799
upperback -0.610551 8.74956 2.07483
thorax -1.66444 4.34383 -0.260274
lowerneck -8.95436 19.2874 7.30645
upperneck 19.2164 26.6125 -3.87673
head 8.94846 12.8146 0.684665
rclavicle -2.48108e-014 -1.11319e-014
rhumerus -32.7201 -3.9523 -80.2585
rradius 25.1632
rwrist -3.95054
rhand -15.0846 2.25002
rfingers 7.12502
rthumb 11.0831 -27.4373
lclavicle -2.48108e-014 -1.11319e-014
lhumerus -30.3921 -6.05891 92.6888
lradius 24.3651
lwrist 2.44926
lhand -10.0298 1.60473
lfingers 7.12502
lthumb 15.955 30.9676
rfemur -4.31238 -16.9912 23.6185
rtibia 27.6363
rfoot -20.5624 -41.545
rtoes 5.15498
lfemur -13.1591 -10.4993 -13.1356
ltibia 29.1996
lfoot -13.3003 0.673672
ltoes -8.95463
90
root 0.127289 17.9092 -29.2085 -0.428508 36.0334 -3.40341
lowerback 2.25123 6.36147 3.69995
upperback -0.586982 8.6392 2.12735
thorax -1.64332 4.29069 -0.157657
lowerneck -9.81677 18.9713 6.8693
upperneck 20.5162 26.1985 -3.23782
head 9.37226 12.5864 1.01609
rclavicle 4.08875e-014 5.56597e-015
rhumerus -32.5671 -3.84738 -80.2933
rradius 25.169
rwrist -3.77864
rhand -15.1327 2.29575
rfingers 7.12502
rthumb 11.0367 -27.3941
lclavicle 4.08875e-014 5.56597e-015
lhumerus -30.4044 -5.69359 92.6321
lradius 24.2632
lwrist 2.27418
lhand -10.0236 1.56209
lfingers 7.12502
lthumb 15.9609 30.9245
rfemur -4.32765 -16.9025 23.5778
rtibia 27.64
rfoot -20.4959 -41.4646
rtoes 5.08828
lfemur -13.1251 -10.4643 -13.1786
ltibia 29.1845
lfoot -13.2791 0.819028
ltoes -8.92807
91
root 0.12797 17.9098 -29.2103 -0.391838 35.8758 -3.35489
lowerback 2.21546 6.26058 3.6135
upperback -0.550574 8.50024 2.18235
thorax -1.61021 4.22365 -0.0463016
lowerneck -10.6868 18.6316 6.44923
upperneck 21.8509 25.764 -2.63769
head 9.82878 12.3458 1.33973
rclavicle 1.07785e-013 1.59028e-014
rhumerus -32.3683 -3.74264 -80.3378
rradius 25.1604
rwrist -3.61559
rhand -15.1854 2.3454
rfingers 7.12502
rthumb 10.9859 -27.3471
lclavicle 1.07785e-013 1.59028e-014
lhumerus -30.3995 -5.28318 92.5608
lradius 24.1627
lwrist 2.08675
lhand -10.0251 1.53608
lfingers 7.12502
lthumb 15.9595 30.8986
rfemur -4.34241 -16.8119 23.5266
rtibia 27.6467
rfoot -20.4309 -41.3876
rtoes 5.02313
lfemur -13.0875 -10.4217 -13.2323
ltibia 29.1655
lfoot -13.2561 0.955332
ltoes -8.92356
92
root 0.128974 17.9105 -29.2121 -0.345971 35.713 -3.29824
lowerback 2.19708 6.22074 3.5769
upperback -0.566893 8.44494 2.15129
thorax -1.61856 4.19589 -0.055734
lowerneck -11.5375 18.1873 6.18542
upperneck 23.2815 25.1569 -2.00458
head 10.3397 12.0393 1.64155
rclavicle 1.76651e-013 -1.59028e-015
rhumerus -32.2969 -3.71431 -80.4159
rradius 25.2209
rwrist -3.67351
rhand -15.1944 2.35716
rfingers 7.12502
rthumb 10.9772 -27.3358
lclavicle 1.76651e-013 -1.59028e-015
lhumerus -30.4745 -5.17843 92.4816
lradius 24.0812
lwrist 1.95738
lhand -10.0278 1.53749
lfingers 7.12502
lthumb 15.9569 30.9002
rfemur -4.36211 -16.7255 23.4668
rtibia 27.653
rfoot -20.3582 -41.3065
rtoes 4.95358
lfemur -13.0523 -10.3662 -13.2932
ltibia 29.1449
lfoot -13.2336 1.08301
ltoes -8.91174
93
root 0.130215 17.9111 -29.2136 -0.306826 35.5379 -3.25535
lowerback 2.1718 6.17553 3.54993
upperback -0.579441 8.3823 2.12342
thorax -1.61846 4.16457 -0.0657873
lowerneck -12.4304 17.7093 5.91377
upperneck 24.8065 24.5134 -1.38406
head 10.9106 11.7136 1.9506
rclavicle 5.20257e-014 -3.18055e-015
rhumerus -32.2095 -3.69656 -80.4922
rradius 25.2837
rwrist -3.74252
rhand -15.1997 2.36901
rfingers 7.12502
rthumb 10.9721 -27.3243
lclavicle 5.20257e-014 -3.18055e-015
lhumerus -30.5643 -5.07848 92.3978
lradius 24.0283
lwrist 1.85127
lhand -10.0089 1.55088
lfingers 7.12502
lthumb 15.9751 30.9121
rfemur -4.38254 -16.6341 23.4191
rtibia 27.6564
rfoot -20.2851 -41.2251
rtoes 4.88449
lfemur -13.016 -10.2984 -13.341
ltibia 29.1254
lfoot -13.214 1.2072
ltoes -8.90389
94
root 0.131434 17.9117 -29.2148 -0.276057 35.3498 -3.22763
lowerback 2.14145 6.13031 3.52535
upperback -0.589983 8.31956 2.10122
thorax -1.61399 4.13333 -0.0706733
lowerneck -13.31 17.1996 5.62267
upperneck 26.333 23.8252 -0.764884
head 11.4971 11.3708 2.25862
rclavicle -1.0512e-013 -3.26007e-014
rhumerus -32.1337 -3.68757 -80.5615
rradius 25.374
rwrist -3.819
rhand -15.1825 2.38343
rfingers 7.12502
rthumb 10.9888 -27.309
lclavicle -1.0512e-013 -3.26007e-014
lhumerus -30.6676 -4.98871 92.3152
lradius 23.9986
lwrist 1.76804
lhand -9.96054 1.56653
lfingers 7.12502
lthumb 16.0216 30.9241
rfemur -4.40111 -16.5276 23.3877
rtibia 27.6553
rfoot -20.2252 -41.1462
rtoes 4.83332
lfemur -12.9781 -10.2221 -13.3729
ltibia 29.1094
lfoot -13.1988 1.33045
ltoes -8.88955
95
root 0.132763 17.9122 -29.216 -0.253318 35.1479 -3.21506
lowerback 2.11627 6.08614 3.50964
upperback -0.601588 8.25891 2.08386
thorax -1.61293 4.10301 -0.0761678
lowerneck -14.1315 16.6758 5.33275
upperneck 27.8233 23.1184 -0.172901
head 12.086 11.0243 2.55296
rclavicle -8.18434e-014 -1.35174e-014
rhumerus -32.0394 -3.69771 -80.6234
rradius 25.4502
rwrist -3.85925
rhand -15.1374 2.39772
rfingers 7.12502
rthumb 11.0323 -27.2924
lclavicle -8.18434e-014 -1.35174e-014
lhumerus -30.7777 -4.89431 92.2333
lradius 23.9792
lwrist 1.69273
lhand -9.90241 1.57372
lfingers 7.12502
lthumb 16.0776 30.9267
rfemur -4.41896 -16.4098 23.3707
rtibia 27.6505
rfoot -20.1706 -41.0626
rtoes 4.78815
lfemur -12.9407 -10.1415 -13.3903
ltibia 29.0982
lfoot -13.1857 1.45998
ltoes -8.85342
96
root 0.134139 17.9129 -29.2174 -0.23568 34.9328 -3.21496
lowerback 2.09361 6.04275 3.49658
upperback -0.61333 8.19971 2.07361
thorax -1.61406 4.07341 -0.0763047
lowerneck -14.9012 16.1332 5.04761
upperneck 29.2794 22.3865 0.386621
head 12.6811 10.6701 2.83134
rclavicle -7.53394e-014 -2.3059e-014
rhumerus -31.8581 -3.75452 -80.6733
rradius 25.4393
rwrist -3.83575
rhand -15.0707 2.42225
rfingers 7.12502
rthumb 11.0965 -27.2644
lclavicle -7.53394e-014 -2.3059e-014
lhumerus -30.8979 -4.81057 92.1629
lradius 23.9818
lwrist 1.65645
lhand -9.8422 1.58892
lfingers 7.12502
lthumb 16.1356 30.9372
rfemur -4.43939 -16.2828 23.3664
rtibia 27.6451
rfoot -20.1112 -40.9752
rtoes 4.7429
lfemur -12.9052 -10.0542 -13.3954
ltibia 29.0912
lfoot -13.1732 1.59631
ltoes -8.80852
97
root 0.135641 17.9134 -29.2191 -0.220393 34.7054 -3.21923
lowerback 2.0731 6.00345 3.48687
upperback -0.625966 8.14616 2.0614
thorax -1.61644 4.04654 -0.0806485
lowerneck -15.6357 15.5656 4.72638
upperneck 30.6911 21.6218 0.936157
head 13.2735 10.3037 3.10515
rclavicle -5.75295e-014 -2.06736e-014
rhumerus -31.6164 -3.85914 -80.7172
rradius 25.3721
rwrist -3.79411
rhand -15.0169 2.45181
rfingers 7.12502
rthumb 11.1484 -27.232
lclavicle -5.75295e-014 -2.06736e-014
lhumerus -31.0141 -4.736 92.0944
lradius 23.9796
lwrist 1.63346
lhand -9.80574 1.60324
lfingers 7.12502
lthumb 16.1707 30.9487
rfemur -4.46182 -16.1469 23.3661
rtibia 27.6434
rfoot -20.0558 -40.882
rtoes 4.70062
lfemur -12.868 -9.96604 -13.3966
ltibia 29.0859
lfoot -13.1609 1.74049
ltoes -8.76823
